<svg width="14" height="14" viewBox="0 0 14 14" fill="none" xmlns="http://www.w3.org/2000/svg">
  <path d="M6.38784 0.585143C6.61944 0.0484418 7.38045 0.0484419 7.61205 0.585143L9.0654 3.95307C9.16347 4.18032 9.37937 4.33454 9.62615 4.35361L13.3533 4.64161C13.9512 4.68781 14.1888 5.43852 13.7263 5.82038L10.9234 8.13456C10.7257 8.29779 10.6391 8.55994 10.7007 8.80881L11.5633 12.2944C11.7052 12.8676 11.0869 13.3286 10.578 13.029L7.33816 11.1217C7.12943 10.9988 6.87047 10.9988 6.66173 11.1217L3.42191 13.029C2.91304 13.3286 2.29469 12.8676 2.43655 12.2944L3.29918 8.80881C3.36077 8.55994 3.27419 8.29779 3.07648 8.13456L0.273557 5.82038C-0.188949 5.43852 0.0486545 4.68781 0.646646 4.64161L4.37375 4.35361C4.62052 4.33454 4.83642 4.18032 4.93449 3.95307L6.38784 0.585143Z" fill="#04B90B" />
</svg>